<svg width="40" height="40" viewBox="0 0 40 40" fill="currentColor" xmlns="http://www.w3.org/2000/svg" xml:space="preserve" class="MarvinBestSvg--icon-users">
<path d="M27.5 20C29.8 20 31.65 18.1333 31.65 15.8333C31.65 13.5333 29.8 11.6667 27.5 11.6667C25.2 11.6667 23.3333 13.5333 23.3333 15.8333C23.3333 18.1333 25.2 20 27.5 20ZM15 18.3333C17.7666 18.3333 19.9833 16.1 19.9833 13.3333C19.9833 10.5667 17.7666 8.33333 15 8.33333C12.2333 8.33333 9.99998 10.5667 9.99998 13.3333C9.99998 16.1 12.2333 18.3333 15 18.3333ZM27.5 23.3333C24.45 23.3333 18.3333 24.8667 18.3333 27.9167V30C18.3333 30.9205 19.0795 31.6667 20 31.6667H35C35.9205 31.6667 36.6666 30.9205 36.6666 30V27.9167C36.6666 24.8667 30.55 23.3333 27.5 23.3333ZM15 21.6667C11.1166 21.6667 3.33331 23.6167 3.33331 27.5V30C3.33331 30.9205 4.07951 31.6667 4.99998 31.6667H15V27.9167C15 26.556 15.5073 24.2114 18.5599 22.3594C18.6921 22.2792 18.6608 22.0747 18.5088 22.0459C17.218 21.8011 15.988 21.6667 15 21.6667Z"/>
</svg>
