<?xml version="1.0" standalone="no"?>
<!DOCTYPE svg PUBLIC "-//W3C//DTD SVG 20010904//EN"
 "http://www.w3.org/TR/2001/REC-SVG-20010904/DTD/svg10.dtd">
<svg version="1.0" xmlns="http://www.w3.org/2000/svg"
 width="500.000000pt" height="500.000000pt" viewBox="0 0 500.000000 500.000000"
 preserveAspectRatio="xMidYMid meet">
<metadata>
Created by potrace 1.14, written by Peter Selinger 2001-2017
</metadata>
<g transform="translate(0.000000,500.000000) scale(0.100000,-0.100000)"
fill="#000000" stroke="none">
<path d="M3010 4370 c-197 -25 -365 -149 -466 -344 -20 -39 -38 -72 -39 -74
-2 -2 -52 -16 -113 -32 -460 -120 -841 -408 -1104 -833 -196 -315 -338 -730
-409 -1190 -40 -262 -51 -409 -56 -774 -6 -379 2 -571 38 -920 10 -106 19
-195 19 -198 0 -3 681 -5 1514 -5 l1515 0 5 42 c4 24 13 111 22 193 23 231
103 918 119 1030 8 55 19 156 25 225 5 69 17 195 25 280 23 238 29 543 16 710
-40 480 -182 869 -424 1158 l-44 54 -6 116 c-3 78 -12 139 -26 182 -42 132
-138 258 -237 312 -98 53 -262 83 -374 68z m229 -367 c71 -46 109 -114 118
-209 13 -138 -85 -225 -162 -144 -16 17 -26 30 -22 30 4 0 1 13 -7 29 -8 15
-17 39 -20 52 -2 13 -18 50 -35 82 -38 71 -41 125 -8 154 12 11 29 23 37 26
23 8 72 -2 99 -20z m203 -694 c22 -12 108 -113 108 -128 0 -6 4 -11 9 -11 15
0 116 -197 144 -280 54 -161 75 -314 58 -419 -6 -35 -17 -71 -24 -80 -8 -9
-17 -33 -21 -53 -8 -44 -26 -51 -26 -11 0 15 -11 38 -24 52 -14 15 -27 37 -30
51 -35 164 -89 356 -107 374 -5 6 -9 16 -9 24 0 7 -40 97 -90 198 -49 102 -91
199 -93 217 -4 33 7 66 27 79 11 8 50 1 78 -13z m-1389 -773 c64 -26 117 -111
117 -187 0 -14 -12 -49 -26 -77 -64 -130 -234 -144 -328 -28 -56 68 -45 200
20 257 55 48 150 64 217 35z m1052 -205 c77 -35 115 -95 115 -178 0 -186 -240
-263 -348 -113 -117 160 54 374 233 291z"/>
</g>
</svg>
