<svg
  xmlns="http://www.w3.org/2000/svg"
  xmlns:xlink="http://www.w3.org/1999/xlink"
  fill="none"
  viewBox="0 0 245 84"
>
  <path fill="#160A15" d="m74.956 6.113.075.048h.059l-.134-.048Z" />
  <path
    fill="#160A15"
    d="m244.787 56.928-1.887-44.31-.075-1.808-.171-3.97-3.975-.051c-3.607-.05-7.213-.093-10.819-.13H222l-2 1.869c2.251 2.879-2.144-2.787 0 0l-3.989-1.995-2.023-.02c-3.507-.037-7.015-.07-10.522-.1l-4.38-.05.072 2.165a11.868 11.868 0 0 0-1.024-1.237 6.652 6.652 0 0 0-.605-3.78c-.394-.792-1.211-2.027-2.656-2.562a6.493 6.493 0 0 0-2.428-.476c-2.536 0-4.68 1.577-5.789 4.236a18.187 18.187 0 0 0-7.041 3.125l.725-1.908-6.047-.034a6083.89 6083.89 0 0 0-12.076-.059h-2.736L151 10.81l-8.275-5.04h-2.643c-4.137 0-8.273-.005-12.407-.013l-6.27-.008s-2.507 1.009-4.423.74a55.195 55.195 0 0 0-7.443-.44h-.121c-6.564 0-13.229.025-19.811.046l-4.137.012-5.417 3.33-5.023-3.276-3.001.016-11.705.074-4.934-.03-4.041 2.704-2.974-2.595-5.602.057-11.308.11-2.238.023L24.5 8.925c1.195-1.827-1.214 1.837 0 0 .966 1.707-.989-1.708 0 0L20.219 6.62l-2.48.025c-3.806.045-7.615.092-11.428.141l-3.97.051-.172 3.97-.079 1.806-1.883 44.31L0 61.79l7.108 11.449c3.729-.392 5.25-.769 8.98-1.13l3.634-1.956 5.379-.485 4.715 1.23c3.942-.328 7.94-.638 11.884-.922l1.665-.12 1.376-.095c3.624-.257 7.304-.49 10.931-.707l2.62-1.77 13.616-1.025 2.994 1.811c.653-.028 1.734-.13 4.413-.233L78.12 83.33s43.773-5.056 86.474.174l-.991-16.108c2.892-.035 7.912.029 10.217 1.069 4.78 2.156 9.959 2.635 13.434 2.817 1.178.054 2.331.108 3.54.108 3.184 0 5.619-.38 7.684-1.194.894-.359 2.305-.397 2.305-.397l3.768.277c3.634.256 7.317.553 10.954.858l5.361-1.873 7.566 3.02 1.808.174c3.292.315 4.367.33 7.653.677L245 61.804l-.213-4.877Zm-44.369 1.986v-.031.03Z"
  />
  <path
    fill="url(#a)"
    d="M190.754 57.518c-1.16 0-2.284-.052-3.432-.108-3.309-.161-8.221-.612-12.681-2.625-2.353-1.06-3.711-2.874-3.726-4.977 0-1.606.768-3.086 2.159-4.167a79.063 79.063 0 0 1-.92-10.317c-.189-8.852 1.245-15.829 4.262-20.746 2.741-4.46 6.703-7.09 11.782-7.838.582-2.077 1.898-3.962 4.216-3.962a4.415 4.415 0 0 1 1.698.358c.572.208 1.056.682 1.442 1.412a4.64 4.64 0 0 1 .256 3.665c.9.769 1.665 1.682 2.265 2.702 3.498 5.796 2.776 12.4 2.133 18.244a14.563 14.563 0 0 1-.241 2.438c-.053.338-.105.656-.138.95l-.41 3.566c-.256 2.272-.532 4.705-.768 7.095l-.031.31c-.143 1.424-.292 2.891-.392 4.336.157.177.326.379.513.607.932 1.15 1.506 2.264 1.708 3.312.402 2.085-.64 3.842-2.792 4.705-1.8.707-3.993 1.04-6.903 1.04Z"
  />
  <path
    fill="url(#b)"
    d="M174.226 46.245c0 .105-.484.559-.553.646-.845 1.093-1.747 2.75-1.052 4.129.397.786 1.226 1.244 2.02 1.623 6.885 3.282 14.961 4.268 22.366 2.306a4.755 4.755 0 0 0 1.629-.684 1.915 1.915 0 0 0 .689-2.182c-1.045-2.964-2.877-3.842-2.877-3.842-.13-.062.3-2.615.32-2.802l.769-6.793c.599-5.23 1.301-10.45 1.726-15.7.22-2.734.341-5.249-.512-7.892-.743-2.274-2.098-4.354-4.129-5.68 0 0 1.045-2.877.348-4.099-.538-.943-2.01-1.309-3.001-1.096-1.053.225-1.668 1.024-2.049 1.982-.336.802-.287 2.305-1.204 2.597a3.887 3.887 0 0 1-1.025.131c-4.08.21-7.62 2.671-9.779 6.058-4.472 6.982-4.994 17.004-3.686 31.298Z"
  />
  <path
    fill="url(#c)"
    d="m4.354 8.91 1.988-.026 11.426-.141h1.237l.612 1.076c1.537 2.681 3.073 5.378 4.654 8.078a2036.9 2036.9 0 0 1 5.47-8.345l.615-.932h1.117l11.3-.13 2.19-.021-1.536 47.317-1.888.136c-3.952.284-7.958.594-11.908.922l-2.356.195.866-24.01c-.927 1.492-1.844 2.972-2.751 4.439l-1.744 2.817-1.793-2.781c-1.004-1.55-2.006-3.105-3.005-4.662l-1.134 25.05-1.816.174c-3.74.356-7.53.735-11.27 1.127l-2.42.256 2.146-50.54Z"
  />
  <path
    fill="#fff"
    d="m44.966 8.469-.471 14.543c-1.555.102-3.36-.418-4.654-1.158-2.446-1.403-.956 6.175-3.47 8.878-3.228 3.445-8.742-2.477-11.941-3.074-4.905-.935-9.203 2.226-13.365 4.208-.7.333-7.766 2.113-7.74 1.514l1.03-24.47 1.987-.026c3.806-.051 7.614-.098 11.423-.141h1.237l.612 1.076c1.537 2.681 3.074 5.378 4.654 8.078 1.793-2.746 3.622-5.54 5.471-8.342l.615-.935h1.117l11.302-.133 2.193-.018Z"
    opacity=".1"
  />
  <path
    fill="url(#d)"
    d="M42.469 52.887A13533.016 13533.016 0 0 1 58.382 9.72l.512-1.36h1.453c3.901-.029 7.802-.053 11.702-.074h1.537l.476 1.455a2480.669 2480.669 0 0 0 13.9 41.083l.915 2.68-2.856.091c-3.722.12-7.497.256-11.226.42l-1.496.064-.548-1.393c-.52-1.342-1.035-2.68-1.547-4.014-3.978.162-7.991.344-11.964.54l-2.38 5.707-1.31.08a1091.2 1091.2 0 0 0-10.955.707l-3.233.223 1.107-3.043Zm19.138-15.732c2.625-.09 5.253-.179 7.865-.256a6464.7 6464.7 0 0 1-3.647-11.928l-4.218 12.184Z"
  />
  <path
    fill="url(#e)"
    d="M87.54 8.205h2.064c6.618-.023 13.28-.04 19.804-.051h.118c2.391-.02 4.781.12 7.153.423 4.631.648 8.389 2.71 10.581 5.809 3.373 4.774 3.376 11.469 0 16.663-2.804 4.324-6.961 6.332-10.014 7.259a894.717 894.717 0 0 0 3.949 4.498c1.903 2.156 3.873 4.387 5.822 6.659l2.958 3.453-4.544.015c-4.338.018-8.726.059-13.047.125l-1.024.016-.643-.807a3260.84 3260.84 0 0 1-7.566-9.549l-.098 10.46-2.049.042c-3.96.074-7.976.171-11.933.29l-2.195.066.664-45.37Zm15.762 18.454h1.519a37.4 37.4 0 0 0 4.513-.256 5.45 5.45 0 0 0 2.33-.796 3.72 3.72 0 0 0 1.166-1.168c.113-.205.307-.705.312-1.727a2.626 2.626 0 0 0-.366-1.493c-.21-.325-.689-.633-1.383-.884a7.89 7.89 0 0 0-2.208-.397 59.55 59.55 0 0 0-3.222-.076h-2.597l-.064 6.797Z"
  />
  <path
    fill="url(#f)"
    d="M158.149 53.281a1172.56 1172.56 0 0 0-13.431-.343l-1.363-.026-.53-1.257c-6.639-15.727-12.071-28.722-17.094-40.899l-1.199-2.904h3.141c4.135 0 8.27.005 12.404.015h1.321l.569 1.191a9242.364 9242.364 0 0 0 9.428 19.627c3.074-6.66 6.055-13.203 8.885-19.514l.569-1.242h1.365c4.026.015 8.052.034 12.077.056l3.022.018-1.071 2.817a2091.817 2091.817 0 0 1-16.077 41.147l-.548 1.36-1.468-.046Z"
  />
  <path
    fill="url(#g)"
    d="M240.369 59.195c-3.291-.346-6.634-.684-9.932-1.001l-.905-.087-.553-.72a1101.953 1101.953 0 0 0-11.464-14.574l.512 14.254-2.359-.197c-3.619-.3-7.31-.59-10.972-.858l-1.883-.139-1.557-47.384 2.19.02c3.505.032 7.012.065 10.521.1h1.01l.625.797c3.672 4.7 7.171 9.236 10.596 13.74l-.577-14.42 2.213.025 10.817.133 1.987.025 2.152 50.542-2.421-.256Z"
  />
  <path
    fill="#fff"
    d="M84.364 58.002c2.935-.185 5.87-.348 8.805-.49 2.1-.099 3.751.334 4.951 1.297 1.202.963 1.793 2.138 1.793 3.516 0 1.77-.93 3.158-2.786 4.178 1.398.312 2.47.923 3.217 1.831a4.947 4.947 0 0 1 1.114 3.23 5.794 5.794 0 0 1-1.824 4.385c-1.214 1.157-3.004 1.78-5.379 1.89-3.305.154-6.61.335-9.914.543l.023-20.38Zm5.074 3.43v4.353c.884-.047 1.769-.093 2.653-.138a2.85 2.85 0 0 0 1.908-.72 2.145 2.145 0 0 0 .687-1.608 1.885 1.885 0 0 0-.687-1.514c-.456-.386-1.093-.56-1.908-.512-.886.05-1.77.096-2.653.138Zm0 8.096v4.815c.949-.053 1.9-.103 2.855-.149 1.353-.069 2.323-.3 2.918-.702.594-.402.889-1.063.889-1.985a1.887 1.887 0 0 0-.846-1.65c-.563-.385-1.316-.556-2.259-.511-1.185.061-2.37.124-3.557.19v-.008Zm30.871 3.926v3.734c-5.013.02-10.024.1-15.032.241V57.05c4.941-.14 9.884-.22 14.827-.24v3.733c-3.244.014-6.494.053-9.748.118v4.275c3.095-.061 6.194-.1 9.295-.115v3.734c-3.1.016-6.198.054-9.295.115v4.903a559.69 559.69 0 0 1 9.953-.118Zm17.716-15.137v3.98c-2.704-1.28-4.866-1.929-6.464-1.954a4.357 4.357 0 0 0-2.183.433c-.534.3-.801.703-.801 1.208a1.513 1.513 0 0 0 .584 1.115c.389.356 1.337.817 2.845 1.396a29.77 29.77 0 0 1 3.619 1.613 7.226 7.226 0 0 1 2.341 2.067c.659.885.988 1.988.986 3.31 0 1.888-.717 3.372-2.151 4.45-1.437 1.087-3.33 1.607-5.671 1.573a15.42 15.42 0 0 1-7.356-2.03v-4.39a20.498 20.498 0 0 0 3.619 2.015 9.116 9.116 0 0 0 3.33.663c1.995.029 2.992-.576 2.992-1.83a1.711 1.711 0 0 0-.597-1.223c-.4-.385-1.361-.862-2.884-1.429a30.308 30.308 0 0 1-3.619-1.552 6.857 6.857 0 0 1-2.305-2.008c-.649-.867-.973-1.977-.971-3.33a5.05 5.05 0 0 1 2.115-4.234c1.411-1.067 3.299-1.586 5.663-1.557 2.184.031 4.487.602 6.908 1.714Zm22.606-.315v3.734a627.423 627.423 0 0 0-7.376-.417v16.648a635.645 635.645 0 0 0-5.077-.236V61.083a443.683 443.683 0 0 0-7.381-.256v-3.75c6.615.202 13.226.51 19.834.925Z"
  />
  <g opacity=".78">
    <path fill="url(#h)" d="M10.066 8.172h11.802v7.868H10.066z" />
    <path
      fill="#fff"
      d="M12.294 10.761c.436-.069.868-.117 1.304-.164l1.304-.115 1.308-.066.653-.031h.654a.213.213 0 0 1 .19.102l.511.815c.175.256.326.553.487.83.162.276.325.553.474.837.149.285.318.566.456.848a.013.013 0 0 1-.019.005.013.013 0 0 1-.004-.005l-2.1-3.22h.02l-5.238.19h-.005a.012.012 0 0 1-.009-.007.013.013 0 0 1-.001-.006h.013l.002-.013Z"
    />
  </g>
  <path fill="url(#i)" d="M40.309 36.571h4.733v13.831h-4.733z" opacity=".78" />
  <path fill="url(#j)" d="M53.895 47.575h5.963v8.053h-5.963z" opacity=".78" />
  <path
    fill="#fff"
    d="M11.344 34.914s-1.132 3.138.174 3.225c1.306.087-.174-3.225-.174-3.225Zm71.657 11.15s-1.132 3.135.177 3.222c1.309.087-.177-3.222-.177-3.222Zm-43.77-6.877s-1.132 3.135.174 3.222c1.307.087-.174-3.222-.174-3.222Zm118.306.455s-1.135 3.138.174 3.225c1.309.087-.174-3.225-.174-3.225Zm74.26 2.746s-1.133 3.138.176 3.225c1.309.087-.176-3.225-.176-3.225Zm-146.563.425a7.105 7.105 0 0 1-1.078 1.122c-2.694 2.274-4.37-5.217-5.174-13.062-.138-1.36-.525-5.297-2.56-5.397-2.245-.11-1.425 3.604-1.794 4.687-.768 2.305-3.842 2.869-5.494 1.168-.988-1.024-.842-1.48-1.724-1.224-.23-.748-1.36-4.395-1.587-5.14l-2.306 6.707c-.512.635-.66 1.632-.883 2.518-.513 2.049-2.387 2.251-3.842.643-.858-.953-1.737-3.842-3.443-2.933a2.53 2.53 0 0 0-1.088 1.42c-.794 2.2-1.573 4.2-4.037 5.027-.95.32-1.35-.832-1.465-2.525 3.291-8.99 6.498-17.737 9.564-26.085l.5-1.362 1.452-.013c3.902-.038 7.802-.073 11.702-.105h1.537l.479 1.455a2670.79 2670.79 0 0 0 11.242 33.1ZM53.131 39.36s-1.895 3.136-.256 2.941c1.64-.195 2.026-1.112 1.634-1.634-.418-.477-.88-.914-1.378-1.306Z"
    opacity=".1"
  />
  <path
    fill="#fff"
    d="M72.088 36.157s-2.549 1.045-1.832 2.56c.717 1.517 2.682.329 2.746-.255.064-.584-.914-2.306-.914-2.306Zm-40.366-3.03s-.551 1.654.453 1.902c1.004.249 1.252-1.173 1.001-1.436-.25-.264-1.454-.467-1.454-.467Z"
    opacity=".1"
  />
  <g opacity=".74">
    <path fill="url(#k)" d="M30.843 8.233h14.446v14.815H30.843z" />
    <path
      fill="#fff"
      d="M33.094 10.994c.792-.107 1.583-.158 2.375-.238.791-.08 1.58-.115 2.371-.154.792-.038 1.583-.066 2.375-.097.791-.03 1.583-.03 2.374-.049a.472.472 0 0 1 .482.464v.028l-.085 2.47c-.049.822-.077 1.646-.14 2.469-.065.822-.121 1.644-.198 2.468l-.13 1.232-.067.615-.087.617a.027.027 0 0 1-.003.01.027.027 0 0 1-.008.009.027.027 0 0 1-.02.005.023.023 0 0 1-.017-.01.022.022 0 0 1-.004-.019l.233-9.884.054.054-9.5.062a.028.028 0 0 1-.025-.026.031.031 0 0 1 .023-.028l-.003.002Z"
    />
  </g>
  <path
    fill="#fff"
    d="M129.089 27.151s-.873 1.834-1.57-1.042c-.697-2.877-3.396-3.05-4.531 1.306-1.135 4.357-6.365 3.137-7.32 1.134-.6-1.247-2.408-2.727-4.78-2.56.276-.106.538-.24.784-.403a3.658 3.658 0 0 0 1.163-1.165c.118-.205.31-.705.315-1.727a2.62 2.62 0 0 0-.374-1.475c-.21-.328-.689-.63-1.383-.884a8.01 8.01 0 0 0-2.208-.397 56.618 56.618 0 0 0-3.225-.081h-2.594l-.062 6.79h1.519c1.434 0 2.866-.078 4.29-.234a9.133 9.133 0 0 0-3.037 2.142c-4.534 4.61-6.888-.7-9.5-5.579-2.613-4.88-4.969 0-7.059 7.94-1.913 7.254-2.22-1.537-2.262-3.073v-.026l.285-19.591h2.064a7389.82 7389.82 0 0 1 19.804-.049h.118c2.39-.021 4.779.119 7.151.42 4.631.645 8.391 2.71 10.583 5.809 2.577 3.62 3.186 8.383 1.829 12.745Z"
    opacity=".1"
  />
  <path
    fill="#fff"
    d="m177.305 8.008-1.07 2.817a1997.512 1997.512 0 0 1-12.446 32.078 33.344 33.344 0 0 1-.197-5.025c.054-1.25-.218-3.002-1.555-3.53-1.519-.602-2.21.927-3.073 1.831-1.094 1.153-2.777 1.537-4.331 1.353-1.555-.184-2.959-.863-4.247-1.703a2.143 2.143 0 0 0-.702-.349c-.538-.107-1.065.256-1.419.664-1.516 1.793-2.835 4.387-4.851 5.688a1.683 1.683 0 0 1-1.26.282c-.589-.13-.999-.658-1.314-1.173-1.388-2.275-2.049-4.969-3.048-7.428-1.229-2.984-2.635-3.206-3.727-2.692-2.96-7.09-5.706-13.7-8.337-20.065l-1.196-2.904h3.143a5127 5127 0 0 1 12.402.015h1.324l.569 1.194a6618.478 6618.478 0 0 0 9.425 19.627c3.074-6.66 6.055-13.204 8.885-19.515l.569-1.244h1.368c4.026.018 8.051.038 12.076.058l3.012.02Zm64.78 34.856c.075 1.817-3.173 2.385-4.298 1.793-2.935-1.518-4.126-6.293-6.608-8.585a4.598 4.598 0 0 0-1.48-1.01c-3.386-1.241-3.156 4.77-6.731 2.939-.894-.459-1.578-1.24-2.147-2.065a13.824 13.824 0 0 1-1.741-3.509c-.223-.67-.42-1.403-.961-1.857-2.382-2.003-3.842 5.428-3.885 6.785-.08 3.033.645 6.104.284 9.126-.143 1.204-.451 2.464-1.316 3.312-.219.24-.514.398-.835.446-.746.058-1.222-.769-1.476-1.466-1.024-2.84-1.49-5.75-1.665-8.754-.061-1.066.239-4.818-.965-5.532-1.137-.672-1.97.768-2.446 1.726 0 0-2.141 1.634-3.647-.098l-.91-27.633 2.193.018c3.505.032 7.012.065 10.519.1h1.025l.619.799c3.678 4.697 7.172 9.236 10.596 13.733l-.586-14.404 2.213.025c3.604.041 7.21.085 10.816.13l1.988.027 1.444 33.954Z"
    opacity=".1"
  />
  <path
    fill="#160A15"
    d="M186.126 21.616v.2a3.79 3.79 0 0 1-.305 1.309 3.883 3.883 0 0 1-7.304-2.598 3.88 3.88 0 0 1 4.277-2.771 3.88 3.88 0 0 1 3.337 3.852l-.005.008Z"
  />
  <path
    fill="#fff"
    d="M186.126 22.028a3.979 3.979 0 0 1-3.952 3.996 3.911 3.911 0 0 1-1.9-.487 4.011 4.011 0 0 1-2.049-3.509 3.944 3.944 0 0 1 .297-1.493 3.885 3.885 0 1 0 7.609 1.288c-.005.07-.005.136-.005.205Z"
    opacity=".1"
  />
  <path
    fill="#160A15"
    d="M186.121 21.816a3.79 3.79 0 0 1-.305 1.309 3.88 3.88 0 0 1-4.349 2.29 3.884 3.884 0 0 1-2.955-4.887 3.944 3.944 0 0 1 7.609 1.28v.008Z"
  />
  <path
    fill="#fff"
    d="M185.478 22.643a3.635 3.635 0 0 1-3.35 2.277 3.57 3.57 0 0 1-1.752-.456 2.826 2.826 0 0 1-.064-.594 2.762 2.762 0 0 1 2.725-2.792 2.71 2.71 0 0 1 2.441 1.565Z"
    opacity=".1"
  />
  <path
    fill="#fff"
    d="M181.513 22.561a1.916 1.916 0 1 0 0-3.832 1.916 1.916 0 0 0 0 3.832Z"
  />
  <path
    fill="#160A15"
    d="M196.471 23.622v.2a3.79 3.79 0 0 1-.305 1.308 3.882 3.882 0 0 1-7.304-2.597 3.88 3.88 0 0 1 4.277-2.772 3.88 3.88 0 0 1 3.337 3.853l-.005.008Z"
  />
  <path
    fill="#fff"
    d="M196.471 24.037a4.015 4.015 0 0 1-1.244 2.914 3.938 3.938 0 0 1-4.608.594 4.01 4.01 0 0 1-2.049-3.509 3.96 3.96 0 0 1 .287-1.493 3.77 3.77 0 0 0-.157 1.081 3.886 3.886 0 0 0 7.766.208c.005.066.005.133.005.204Z"
    opacity=".1"
  />
  <path
    fill="#160A15"
    d="M196.466 23.821a3.79 3.79 0 0 1-.305 1.31 3.882 3.882 0 0 1-7.304-2.598 3.936 3.936 0 0 1 4.325-2.45 3.942 3.942 0 0 1 3.284 3.73v.008Z"
  />
  <path
    fill="#fff"
    d="M195.823 24.649a3.635 3.635 0 0 1-3.35 2.277 3.572 3.572 0 0 1-1.752-.456 2.894 2.894 0 0 1-.064-.595 2.763 2.763 0 0 1 2.72-2.792 2.715 2.715 0 0 1 2.446 1.566Z"
    opacity=".1"
  />
  <path
    fill="#fff"
    d="M191.858 24.567a1.915 1.915 0 1 0 .001-3.831 1.915 1.915 0 0 0-.001 3.83Z"
  />
  <path
    fill="#160A15"
    d="m189.815 29.9-.024.027a.36.36 0 0 1-.445.18 1.881 1.881 0 0 1-1.025-.858 3.68 3.68 0 0 1-1.601.356c-1.639 0-3.073-.938-3.15-.992l-.023-.017c-.297.18-.623.307-.963.376h-.064a.366.366 0 0 1-.323-.2.368.368 0 0 1 .026-.36.361.361 0 0 1 .23-.15c.067-.012 1.478-.302 1.43-1.47a.344.344 0 0 1 .093-.258.36.36 0 0 1 .624.225v.282a1.826 1.826 0 0 1-.256.768l.123.067c.624.338 2.159 1.009 3.427.379a.67.67 0 0 1 .122-.041.738.738 0 0 1 0-.115 2.76 2.76 0 0 1 .049-.697.36.36 0 1 1 .704.143s0 .052-.017.118a2.487 2.487 0 0 0-.016.448c.026.462.187 1.076.856 1.312a.354.354 0 0 1 .215.19.37.37 0 0 1 .034.142.374.374 0 0 1-.026.144Z"
  />
  <path
    fill="#fff"
    d="M189.815 30.214a.36.36 0 0 1-.462.216 1.88 1.88 0 0 1-1.024-.859 3.644 3.644 0 0 1-1.611.356c-1.639 0-3.074-.937-3.15-.99l-.024-.019a2.97 2.97 0 0 1-.963.374.176.176 0 0 1-.064 0 .357.357 0 0 1-.3-.168.362.362 0 0 1-.022-.344.361.361 0 0 0 .322.2h.064c.341-.069.667-.196.963-.377l.024.018c.079.054 1.511.991 3.15.991a3.684 3.684 0 0 0 1.601-.356 1.88 1.88 0 0 0 1.024.858.364.364 0 0 0 .448-.187.351.351 0 0 1 .024.287Z"
    opacity=".1"
  />
  <g opacity=".74">
    <path fill="url(#l)" d="M60.841 7.188h16.536v15.306H60.841z" />
    <path
      fill="#fff"
      d="M63.074 9.906c.792-.108 1.583-.159 2.372-.24.789-.083 1.583-.116 2.374-.152.792-.036 1.583-.067 2.375-.097.791-.031 1.583-.034 2.374-.049a.474.474 0 0 1 .469.361l.62 2.613c.19.873.397 1.744.568 2.625.172.881.351 1.754.512 2.638l.22 1.327.108.666.095.668v.01a.028.028 0 0 1-.006.01.026.026 0 0 1-.017.008.023.023 0 0 1-.019-.003.022.022 0 0 1-.006-.008.024.024 0 0 1-.003-.01L72.523 9.858l.051.041-9.5.051a.026.026 0 0 1-.025-.028c0-.006.003-.012.007-.017a.028.028 0 0 1 .016-.008l.002.01Z"
    />
  </g>
  <g opacity=".74">
    <path fill="url(#m)" d="M129.996 7.004h14.815v10.819h-14.815z" />
    <path
      fill="#fff"
      d="M132.219 9.66c.676-.102 1.352-.146 2.026-.218.673-.071 1.352-.102 2.028-.133.677-.03 1.35-.051 2.026-.074.677-.023 1.35-.018 2.026-.026a.466.466 0 0 1 .446.308l.538 1.477c.159.513.338.992.484 1.499.146.507.297 1.006.433 1.516l.182.768.089.387.075.392v.01a.032.032 0 0 1-.004.01l-.007.007a.032.032 0 0 1-.019.004.027.027 0 0 1-.009-.003.023.023 0 0 1-.007-.007c-.001-.002-.003-.005-.003-.008l-2.249-5.876.051.034-8.106-.026a.025.025 0 0 1-.018-.008.025.025 0 0 1-.008-.018c0-.006.003-.012.007-.017a.025.025 0 0 1 .016-.008l.003.01Z"
    />
  </g>
  <g opacity=".74">
    <path fill="url(#n)" d="M203.515 8.049h16.167v10.88h-16.167z" />
    <path
      fill="#fff"
      d="M205.774 10.718c.676-.1 1.35-.146 2.026-.218.676-.072 1.35-.102 2.026-.13.676-.029 1.35-.054 2.026-.077.676-.023 1.352-.018 2.026-.026a.475.475 0 0 1 .41.23l.876 1.501c.276.513.568 1.012.829 1.537.262.525.528 1.025.782 1.56l.356.8.179.399.164.41a.036.036 0 0 1-.001.02.033.033 0 0 1-.014.015.028.028 0 0 1-.019 0 .029.029 0 0 1-.015-.012l-3.586-5.955.044.025-8.104-.025a.017.017 0 0 1-.01-.003.018.018 0 0 1-.009-.006.03.03 0 0 1-.005-.009c-.002-.003-.002-.007-.002-.01a.026.026 0 0 1 .021-.026Z"
    />
  </g>
  <g opacity=".74">
    <path fill="url(#o)" d="M232.406 8.049h9.221v18.38h-9.221z" />
    <path
      fill="#fff"
      d="M234.614 10.661c.359-.097.715-.138 1.071-.207.356-.07.712-.092 1.068-.12.356-.029.712-.046 1.07-.064.359-.018.71 0 1.066-.016a.462.462 0 0 1 .479.464l.046 3.365v3.368c0 1.125-.036 2.247-.067 3.369l-.079 1.68-.044.853-.054.842a.03.03 0 0 1-.002.01.029.029 0 0 1-.007.008.018.018 0 0 1-.009.004.023.023 0 0 1-.01.001.027.027 0 0 1-.018-.007.024.024 0 0 1-.007-.018l-.287-13.462.051.05-4.267-.063a.031.031 0 0 1-.018-.01.04.04 0 0 1-.008-.018.023.023 0 0 1 .021-.023l.005-.006Z"
    />
  </g>
  <g opacity=".74">
    <path fill="url(#p)" d="M105.653 7.434h20.593v9.344h-20.593z" />
    <path
      fill="#fff"
      d="m107.905 9.983.545-.067.546-.046 1.088-.092 1.089-.064 1.086-.049a19.437 19.437 0 0 1 2.231.028c.737.062 1.472.154 2.202.287 1.467.264 2.884.753 4.201 1.45a8.834 8.834 0 0 1 1.826 1.311 6.325 6.325 0 0 1 1.322 1.793.029.029 0 0 1 0 .02.027.027 0 0 1-.013.016.03.03 0 0 1-.017.005.025.025 0 0 1-.016-.005c-.787-1.224-1.991-2.12-3.287-2.75a16.182 16.182 0 0 0-4.134-1.294 24 24 0 0 0-4.32-.42l-4.355-.057h-.01a.034.034 0 0 1-.009-.006.028.028 0 0 1-.005-.009c-.001-.003-.002-.007-.001-.01 0-.007.002-.013.006-.018a.027.027 0 0 1 .017-.008l.008-.015Z"
    />
  </g>
  <g opacity=".74">
    <path fill="url(#q)" d="M192.819 9.032h8.053v14.446h-8.053z" />
    <path
      fill="#fff"
      d="M195.081 11.253a10.3 10.3 0 0 1 1.695 2.123c.241.383.462.778.661 1.184.102.202.195.41.282.622.087.213.182.418.256.633.317.86.532 1.754.643 2.664a7.845 7.845 0 0 1-.139 2.74.025.025 0 0 1-.012.017.029.029 0 0 1-.021.003.03.03 0 0 1-.015-.01.023.023 0 0 1-.005-.018 12.359 12.359 0 0 0-.216-2.645 16.39 16.39 0 0 0-.732-2.562 21.825 21.825 0 0 0-1.073-2.436 20.16 20.16 0 0 0-1.368-2.287.029.029 0 0 1-.006-.018.03.03 0 0 1 .006-.018.027.027 0 0 1 .017-.006c.006 0 .012.002.016.006l.011.008Z"
    />
  </g>
  <g opacity=".74">
    <path fill="url(#r)" d="M190.422 2.639h6.209v7.684h-6.209z" />
    <path
      fill="#fff"
      d="M192.701 4.827c.177.021.349.069.512.14.076.029.148.063.218.103l.054.028c.021.014.04.03.059.046a.874.874 0 0 1 .107.088c.263.237.467.531.597.86.137.328.19.686.154 1.04a1.71 1.71 0 0 1-.397.95.026.026 0 0 1-.036 0 .024.024 0 0 1-.004-.011c0-.004.002-.008.004-.012.052-.297.065-.6.038-.901a2.81 2.81 0 0 0-.225-.869 3.309 3.309 0 0 0-.464-.768c-.197-.223-.425-.438-.63-.663a.023.023 0 0 1-.005-.008.028.028 0 0 1-.002-.01l.002-.008a.023.023 0 0 1 .005-.008.028.028 0 0 1 .018 0l-.005.003Z"
    />
  </g>
  <g opacity=".74">
    <path fill="url(#s)" d="M194.171 47.329h6.577v8.852h-6.577z" />
    <path
      fill="#fff"
      d="M196.428 49.54c.217.06.426.145.622.255.095.049.188.103.277.162a1.477 1.477 0 0 1 .274.23c.327.332.578.732.735 1.17.158.437.215.904.164 1.366a2.506 2.506 0 0 1-.474 1.255.027.027 0 0 1-.018.006.03.03 0 0 1-.018-.006.034.034 0 0 1 0-.028c.1-.4.141-.811.123-1.222a3.85 3.85 0 0 0-.256-1.199 4.007 4.007 0 0 0-.599-1.065c-.256-.307-.572-.597-.856-.897a.029.029 0 0 1-.006-.018c0-.006.002-.012.006-.017a.034.034 0 0 1 .013-.003.03.03 0 0 1 .013.002v.008Z"
    />
  </g>
  <g opacity=".74">
    <path fill="url(#t)" d="M166.571 7.557h9.344v14.446h-9.344z" />
    <path
      fill="#fff"
      d="M168.825 9.921c.374-.069.743-.08 1.114-.12.371-.041.738-.033 1.106-.03.369.002.735.012 1.102.02.366.007.732.048 1.096.071a.469.469 0 0 1 .438.497.52.52 0 0 1-.026.103l-.768 2.346c-.256.768-.512 1.56-.807 2.33-.294.771-.563 1.537-.86 2.306l-.467 1.147-.233.571-.256.569a.026.026 0 0 1-.018.007.027.027 0 0 1-.018-.007.019.019 0 0 1-.007-.005c-.003-.002-.004-.005-.006-.008l-.001-.009c0-.003 0-.006.002-.009l2.927-9.377.046.07-4.377-.42a.026.026 0 0 1-.016-.008.023.023 0 0 1-.007-.016.027.027 0 0 1 .007-.014.025.025 0 0 1 .013-.009l.016-.005Z"
    />
  </g>
  <g opacity=".78">
    <path fill="url(#u)" d="M80.327 36.756h7.131v13.462h-7.131z" />
    <path
      fill="#fff"
      d="M82.56 38.964c.162.36.295.732.444 1.096l.397 1.109c.256.74.481 1.493.725 2.241.243.748.432 1.506.622 2.27l.287 1.152c.077.387.169.768.233 1.158a.015.015 0 0 1-.013.015h-.013L83.88 43.5l-1.335-4.513v-.016a.013.013 0 0 1 .018 0l-.002-.007Z"
    />
  </g>
  <g opacity=".78">
    <path fill="url(#v)" d="M117.087 40.383h10.819v13.278h-10.819z" />
    <path
      fill="#fff"
      d="M119.323 42.616c.307.338.591.692.888 1.037l.848 1.066c.561.712 1.091 1.45 1.637 2.172.545.722 1.05 1.48 1.552 2.236l.743 1.137c.235.39.484.768.709 1.168a.014.014 0 0 1 .003.009.015.015 0 0 1-.003.009h-.018l-3.201-4.403-3.179-4.416.021-.015Z"
    />
  </g>
  <g opacity=".78">
    <path fill="url(#w)" d="M98.891 41.305h4.733v12.294h-4.733z" />
    <path
      fill="#fff"
      d="M101.184 43.543c.048.325.069.65.105.976l.054.976c.033.653.025 1.304.038 1.954.013.65-.026 1.301-.067 1.952l-.071.976c-.039.325-.064.65-.116.973h-.012v-.013l.015-3.903.043-3.903h.026l-.015.012Z"
    />
  </g>
  <path fill="url(#x)" d="M213.78 44.624h4.672v12.294h-4.672z" opacity=".78" />
  <g opacity=".78">
    <path fill="url(#y)" d="M156.059 39.461h7.991v14.753h-7.991z" />
    <path
      fill="#fff"
      d="M161.853 41.67c-.097.447-.225.885-.338 1.328l-.382 1.314c-.256.873-.558 1.734-.837 2.602a44.62 44.62 0 0 1-.935 2.561l-.512 1.28c-.185.418-.354.843-.549 1.258-.002.003-.005.004-.009.004a.015.015 0 0 1-.009-.004v-.017l1.763-5.164 1.793-5.166a.013.013 0 0 1 .009-.004.01.01 0 0 1 .008.004v.015l-.002-.01Z"
    />
  </g>
  <path fill="url(#z)" d="M237.877 43.948h5.102v15.368h-5.102z" opacity=".78" />
  <path
    fill="#fff"
    d="M94.181 31.382c-.725 0-1.194 2.526-.768 2.982a.683.683 0 0 0 .548.19c.199-.025.39-.09.56-.196 1.125-.637.902-2.174-.089-2.873a.484.484 0 0 0-.228-.103h-.023Zm14.013 4.29a1.97 1.97 0 0 0-.556.769.735.735 0 0 0 .036.737.846.846 0 0 0 .284.193c.321.17.667.287 1.025.345a1.634 1.634 0 0 0 1.793-1.337c.061-.466-.484-1.913-1.212-1.536-.487.222-.947.5-1.37.83Zm34.191 8.104a.306.306 0 0 0-.044.041.584.584 0 0 0-.105.256c-.061.312-.054.632.02.94a.882.882 0 0 0 .528.687c.73.215 1.627-.374 1.898-1.038.272-.663-.22-1.792-1.071-1.429l-1.024.438a.761.761 0 0 0-.202.105Zm69.213 7.792c-.545.123-.64 1.28-.612 1.685.048.6.291 1.169.692 1.619.189.225.799.92.894.256a6.212 6.212 0 0 0 0-2.072c-.047-.277-.536-1.588-.974-1.488Zm-6.516-13.631a1.061 1.061 0 0 0-.635.722c-.166.351-.198.75-.092 1.124.243.607 1.124.54 1.414.013.137-.31.196-.65.171-.989.008-.684-.012-1.142-.858-.87Z"
    opacity=".1"
  />
  <defs>
    <pattern
      id="h"
      width="1"
      height="1"
      patternContentUnits="objectBoundingBox"
    >
      <use xlink:href="#A" transform="scale(0)" />
    </pattern>
    <pattern
      id="i"
      width="1"
      height="1"
      patternContentUnits="objectBoundingBox"
    >
      <use xlink:href="#B" transform="scale(0)" />
    </pattern>
    <pattern
      id="j"
      width="1"
      height="1"
      patternContentUnits="objectBoundingBox"
    >
      <use xlink:href="#C" transform="scale(0)" />
    </pattern>
    <pattern
      id="k"
      width="1"
      height="1"
      patternContentUnits="objectBoundingBox"
    >
      <use xlink:href="#D" transform="scale(0)" />
    </pattern>
    <pattern
      id="l"
      width="1"
      height="1"
      patternContentUnits="objectBoundingBox"
    >
      <use xlink:href="#E" transform="scale(0)" />
    </pattern>
    <pattern
      id="m"
      width="1"
      height="1"
      patternContentUnits="objectBoundingBox"
    >
      <use xlink:href="#F" transform="scale(0)" />
    </pattern>
    <pattern
      id="n"
      width="1"
      height="1"
      patternContentUnits="objectBoundingBox"
    >
      <use xlink:href="#G" transform="scale(0)" />
    </pattern>
    <pattern
      id="o"
      width="1"
      height="1"
      patternContentUnits="objectBoundingBox"
    >
      <use xlink:href="#H" transform="scale(0)" />
    </pattern>
    <pattern
      id="p"
      width="1"
      height="1"
      patternContentUnits="objectBoundingBox"
    >
      <use xlink:href="#I" transform="scale(0)" />
    </pattern>
    <pattern
      id="q"
      width="1"
      height="1"
      patternContentUnits="objectBoundingBox"
    >
      <use xlink:href="#J" transform="scale(0)" />
    </pattern>
    <pattern
      id="r"
      width="1"
      height="1"
      patternContentUnits="objectBoundingBox"
    >
      <use xlink:href="#K" transform="scale(0)" />
    </pattern>
    <pattern
      id="s"
      width="1"
      height="1"
      patternContentUnits="objectBoundingBox"
    >
      <use xlink:href="#L" transform="scale(0)" />
    </pattern>
    <pattern
      id="t"
      width="1"
      height="1"
      patternContentUnits="objectBoundingBox"
    >
      <use xlink:href="#M" transform="scale(0)" />
    </pattern>
    <pattern
      id="u"
      width="1"
      height="1"
      patternContentUnits="objectBoundingBox"
    >
      <use xlink:href="#N" transform="scale(0)" />
    </pattern>
    <pattern
      id="v"
      width="1"
      height="1"
      patternContentUnits="objectBoundingBox"
    >
      <use xlink:href="#O" transform="scale(0)" />
    </pattern>
    <pattern
      id="w"
      width="1"
      height="1"
      patternContentUnits="objectBoundingBox"
    >
      <use xlink:href="#P" transform="scale(0)" />
    </pattern>
    <pattern
      id="x"
      width="1"
      height="1"
      patternContentUnits="objectBoundingBox"
    >
      <use xlink:href="#Q" transform="scale(0)" />
    </pattern>
    <pattern
      id="y"
      width="1"
      height="1"
      patternContentUnits="objectBoundingBox"
    >
      <use xlink:href="#R" transform="scale(0)" />
    </pattern>
    <pattern
      id="z"
      width="1"
      height="1"
      patternContentUnits="objectBoundingBox"
    >
      <use xlink:href="#S" transform="scale(0)" />
    </pattern>
    <radialGradient
      id="a"
      cx="0"
      cy="0"
      r="1"
      gradientTransform="matrix(32.9 0 0 32.9 183.954 44.524)"
      gradientUnits="userSpaceOnUse"
    >
      <stop stop-color="#E8318A" />
      <stop offset="1" stop-color="#E83860" />
    </radialGradient>
    <radialGradient
      id="b"
      cx="0"
      cy="0"
      r="1"
      gradientTransform="matrix(48 0 0 48 183.048 54.006)"
      gradientUnits="userSpaceOnUse"
    >
      <stop stop-color="#fff" stop-opacity="0" />
      <stop offset="1" stop-color="#fff" stop-opacity=".2" />
    </radialGradient>
    <radialGradient
      id="c"
      cx="0"
      cy="0"
      r="1"
      gradientTransform="matrix(32.7 0 0 32.7 14.743 25.765)"
      gradientUnits="userSpaceOnUse"
    >
      <stop stop-color="#E8318A" />
      <stop offset="1" stop-color="#E83860" />
    </radialGradient>
    <radialGradient
      id="d"
      cx="0"
      cy="0"
      r="1"
      gradientTransform="matrix(27 0 0 27 66.683 22.976)"
      gradientUnits="userSpaceOnUse"
    >
      <stop stop-color="#E8318A" />
      <stop offset="1" stop-color="#E83860" />
    </radialGradient>
    <radialGradient
      id="e"
      cx="0"
      cy="0"
      r="1"
      gradientTransform="matrix(35 0 0 35 97.447 14.783)"
      gradientUnits="userSpaceOnUse"
    >
      <stop stop-color="#E8318A" />
      <stop offset="1" stop-color="#E83860" />
    </radialGradient>
    <radialGradient
      id="f"
      cx="0"
      cy="0"
      r="1"
      gradientTransform="matrix(26.8 0 0 26.8 161.241 23.412)"
      gradientUnits="userSpaceOnUse"
    >
      <stop stop-color="#E8318A" />
      <stop offset="1" stop-color="#E83860" />
    </radialGradient>
    <radialGradient
      id="g"
      cx="0"
      cy="0"
      r="1"
      gradientTransform="matrix(29.1 0 0 29.1 217.973 26.288)"
      gradientUnits="userSpaceOnUse"
    >
      <stop stop-color="#E8318A" />
      <stop offset="1" stop-color="#E83860" />
    </radialGradient>
  </defs>
</svg>
